<?xml version="1.0" encoding="utf-8"?>
<!-- Created based on Twitter's branding guidelines -->
<svg width="30px" height="30px" viewBox="0 0 16 16" xmlns="http://www.w3.org/2000/svg" fill="none">
  <path fill="#1DA1F2" d="M13.643 4.857c.01.15.01.302.01.453 0 4.608-3.507 9.916-9.916 9.916A9.864 9.864 0 010 13.36a7.17 7.17 0 005.282-1.474 3.541 3.541 0 01-3.3-2.451 4.47 4.47 0 00.664.05c.558 0 1.095-.075 1.608-.217A3.535 3.535 0 01.7 7.213v-.045c.469.261 1.004.42 1.576.438a3.533 3.533 0 01-1.098-4.717 10.027 10.027 0 007.278 3.694 3.991 3.991 0 01-.087-.81A3.53 3.53 0 0110.65 2a3.516 3.516 0 012.567 1.11 6.978 6.978 0 002.238-.856 3.51 3.51 0 01-1.55 1.947 6.98 6.98 0 002.005-.55 7.393 7.393 0 01-1.807 1.849z"/>
</svg>
